<?xml version="1.0" encoding="UTF-8" standalone="no"?>
<svg width="84px" height="74px" viewBox="0 0 84 74" version="1.1" xmlns="http://www.w3.org/2000/svg" xmlns:xlink="http://www.w3.org/1999/xlink">
    <!-- Generator: sketchtool 42 (36781) - http://www.bohemiancoding.com/sketch -->
    <title>C757B491-D87D-4430-8323-1242F412EA2D</title>
    <desc>Created with sketchtool.</desc>
    <defs></defs>
    <g id="Welcome" stroke="none" stroke-width="1" fill="none" fill-rule="evenodd">
        <g id="17-cart-empty" transform="translate(-1156.000000, -197.000000)">
            <g id="Group-3" transform="translate(1156.000000, 197.000000)">
                <path d="M83.1577329,71.9774262 L82.0968842,71.9774262 C81.7283538,71.9774262 81.42937,72.275754 81.42937,72.6437614 C81.42937,73.0118641 81.7283538,73.3100967 82.0968842,73.3100967 L83.1577329,73.3100967 C83.5259772,73.3100967 83.8255333,73.0118641 83.8255333,72.6437614 C83.8255333,72.275754 83.5259772,71.9774262 83.1577329,71.9774262" id="Fill-3" fill="#555555"></path>
                <path d="M79.2034004,71.9774262 L77.1045991,71.9774262 C76.7357824,71.9774262 76.4367987,72.275754 76.4367987,72.6437614 C76.4367987,73.0118641 76.7357824,73.3100967 77.1045991,73.3100967 L79.2034004,73.3100967 C79.572217,73.3100967 79.8712008,73.0118641 79.8712008,72.6437614 C79.8712008,72.275754 79.572217,71.9774262 79.2034004,71.9774262" id="Fill-4" fill="#555555"></path>
                <path d="M74.3379973,71.9774262 L11.4693574,71.9774262 C11.1005408,71.9774262 10.801557,72.275754 10.801557,72.6437614 C10.801557,73.0118641 11.1005408,73.3100967 11.4693574,73.3100967 L74.3379973,73.3100967 C74.706814,73.3100967 75.0057977,73.0118641 75.0057977,72.6437614 C75.0057977,72.275754 74.706814,71.9774262 74.3379973,71.9774262" id="Fill-5" fill="#555555"></path>
                <path d="M7.46255488,71.9774262 L4.08100433,71.9774262 C3.7120923,71.9774262 3.41320391,72.275754 3.41320391,72.6437614 C3.41320391,73.0118641 3.7120923,73.3100967 4.08100433,73.3100967 L7.46255488,73.3100967 C7.83137151,73.3100967 8.1303553,73.0118641 8.1303553,72.6437614 C8.1303553,72.275754 7.83137151,71.9774262 7.46255488,71.9774262" id="Fill-6" fill="#555555"></path>
                <path d="M6.65747377,35.2300824 C6.33301816,35.148028 5.99587435,35.1962897 5.70862476,35.367633 C5.42108898,35.5384052 5.21740985,35.8106508 5.135175,36.1342994 C5.10989398,36.2336785 5.17009142,36.3346759 5.26968909,36.3599014 C5.36919135,36.3850318 5.47050621,36.3250616 5.49578723,36.2255873 C5.55369507,35.9980814 5.69679516,35.806748 5.89894789,35.6866172 C6.10243621,35.5659154 6.33797896,35.5322178 6.56588971,35.5899986 C7.03659361,35.7090823 7.32241219,36.1880821 7.20297131,36.6577533 C7.08353044,37.1275197 6.60347733,37.4125208 6.13286883,37.2934372 C5.96963933,37.2521244 5.82281864,37.1659768 5.70814776,37.0441326 C5.63783792,36.9694079 5.51992345,36.9656954 5.4452252,37.0359462 C5.37033615,37.1061018 5.36652015,37.2235672 5.43692539,37.2982919 C5.6002503,37.4718247 5.80927183,37.5946207 6.04128478,37.6533534 C6.36612198,37.7355982 6.69410739,37.6823866 6.96504356,37.5296054 C7.25277014,37.3674956 7.47619709,37.0930606 7.56367894,36.7490413 C7.73349105,36.0809925 7.32699139,35.3996171 6.65747377,35.2300824" id="Fill-7" fill="#555555"></path>
                <path d="M1.49804769,23.4149107 C1.54498452,23.4149107 1.59201675,23.3970148 1.62788717,23.3612231 C1.69953262,23.2897349 1.69953262,23.1736973 1.62788717,23.1022091 L1.06521762,22.540774 C0.993572172,22.4691906 0.877374899,22.4691906 0.805634053,22.540774 C0.733893207,22.6123575 0.733893207,22.7282998 0.805634053,22.7998832 L1.36820821,23.3612231 C1.40407863,23.3970148 1.45101546,23.4149107 1.49804769,23.4149107 Z" id="Fill-8" fill="#555555"></path>
                <path d="M1.43098145,23.8670668 C1.43098145,23.7659742 1.3487466,23.6839198 1.24733633,23.6839198 L0.451604428,23.6839198 C0.350289564,23.6839198 0.268054712,23.7659742 0.268054712,23.8670668 C0.268054712,23.9682546 0.350289564,24.050309 0.451604428,24.050309 L1.24733633,24.050309 C1.3487466,24.050309 1.43098145,23.9682546 1.43098145,23.8670668" id="Fill-9" fill="#555555"></path>
                <path d="M1.65021079,24.363677 C1.57846994,24.2920935 1.46227267,24.2920935 1.39053182,24.363677 L0.827957667,24.925112 C0.756216822,24.9966003 0.756216822,25.1126378 0.827957667,25.1841261 C0.86382809,25.2199178 0.91076492,25.2378137 0.95779715,25.2378137 C1.00473398,25.2378137 1.05176621,25.2199178 1.08754123,25.1841261 L1.65021079,24.6227862 C1.72185623,24.5512979 1.72185623,24.4352604 1.65021079,24.363677" id="Fill-10" fill="#555555"></path>
                <path d="M2.15707131,24.5601507 C2.05566105,24.5601507 1.97342619,24.6422051 1.97342619,24.7433929 L1.97342619,25.5372838 C1.97342619,25.6384716 2.05566105,25.720526 2.15707131,25.720526 C2.25848158,25.720526 2.34071643,25.6384716 2.34071643,25.5372838 L2.34071643,24.7433929 C2.34071643,24.6422051 2.25848158,24.5601507 2.15707131,24.5601507" id="Fill-11" fill="#555555"></path>
                <path d="M2.65486883,24.3414975 C2.58312798,24.4129858 2.58312798,24.5290233 2.65486883,24.6005116 L3.21744298,25.1619466 C3.25331341,25.1977384 3.30025024,25.2156342 3.34728247,25.2156342 C3.3942193,25.2156342 3.44125153,25.1977384 3.47712195,25.1619466 C3.54876739,25.0904584 3.54876739,24.9744208 3.47712195,24.9028374 L2.91445239,24.3414975 C2.84280695,24.2699141 2.72660967,24.2699141 2.65486883,24.3414975" id="Fill-12" fill="#555555"></path>
                <path d="M2.85177455,23.8356538 C2.85177455,23.9368416 2.933914,24.018896 3.03532427,24.018896 L3.83105617,24.018896 C3.93246644,24.018896 4.01470129,23.9368416 4.01470129,23.8356538 C4.01470129,23.7344661 3.93246644,23.6524116 3.83105617,23.6524116 L3.03532427,23.6524116 C2.933914,23.6524116 2.85177455,23.7344661 2.85177455,23.8356538" id="Fill-13" fill="#555555"></path>
                <path d="M2.76238469,23.3927313 C2.80932152,23.3927313 2.85625835,23.3748354 2.89212878,23.3390437 L3.45479833,22.7776086 C3.52644378,22.7061204 3.52644378,22.5900828 3.45479833,22.5185946 C3.38305749,22.4470111 3.26686022,22.4470111 3.19511937,22.5185946 L2.63254521,23.0799344 C2.56080437,23.1515179 2.56080437,23.2675554 2.63254521,23.3390437 C2.66841564,23.3748354 2.71535247,23.3927313 2.76238469,23.3927313" id="Fill-14" fill="#555555"></path>
                <path d="M2.30923441,22.9593278 L2.30923441,22.1654369 C2.30923441,22.0642491 2.22699956,21.9821947 2.12558929,21.9821947 C2.02417903,21.9821947 1.94203957,22.0642491 1.94203957,22.1654369 L1.94203957,22.9593278 C1.94203957,23.0605155 2.02417903,23.14257 2.12558929,23.14257 C2.22699956,23.14257 2.30923441,23.0605155 2.30923441,22.9593278 Z" id="Fill-15" fill="#555555"></path>
                <path d="M19.2058253,27.532006 C19.0960199,27.4224415 18.9180033,27.4224415 18.8082933,27.532006 L17.9469261,28.3913882 C17.8372161,28.5009527 17.8372161,28.6785787 17.9469261,28.7880481 C18.0567316,28.8976126 18.2347481,28.8976126 18.3444582,28.7880481 L19.2058253,27.9286659 C19.3156308,27.8191014 19.3156308,27.6414754 19.2058253,27.532006" id="Fill-16" fill="#555555"></path>
                <path d="M17.2180697,29.5153054 C17.1083596,29.4058361 16.9303431,29.4058361 16.8205376,29.5153054 L15.9592659,30.3747827 C15.8494604,30.4842521 15.8494604,30.6618781 15.9592659,30.7714426 C16.0689759,30.8810072 16.2469925,30.8810072 16.3567979,30.7714426 L17.2180697,29.9119653 C17.3278751,29.8024959 17.3278751,29.62487 17.2180697,29.5153054" id="Fill-17" fill="#555555"></path>
                <path d="M19.2057299,30.3747827 L18.3444582,29.5154006 C18.2347481,29.4058361 18.0567316,29.4058361 17.9469261,29.5154006 C17.8372161,29.62487 17.8372161,29.8024959 17.9469261,29.9120605 L18.8081979,30.7714426 C18.9180033,30.8810072 19.0960199,30.8810072 19.2057299,30.7714426 C19.3155354,30.6618781 19.3155354,30.4842521 19.2057299,30.3747827" id="Fill-18" fill="#555555"></path>
                <path d="M17.2180697,28.3913882 L16.3567979,27.532006 C16.2469925,27.4225367 16.0689759,27.4225367 15.9592659,27.532006 C15.8494604,27.6415706 15.8494604,27.8191966 15.9592659,27.9286659 L16.8205376,28.7880481 C16.9302477,28.8976126 17.1082642,28.8976126 17.2180697,28.7880481 C17.3278751,28.6785787 17.3278751,28.5009527 17.2180697,28.3913882" id="Fill-19" fill="#555555"></path>
                <path d="M14.6759443,61.5588932 L14.1209067,62.1126179 C14.0502153,62.1832494 14.0502153,62.2976687 14.1209067,62.368205 C14.1563001,62.4035208 14.2026646,62.4212263 14.249029,62.4212263 C14.2953934,62.4212263 14.3416624,62.4035208 14.3770559,62.368205 L14.9320934,61.8144804 C15.0027849,61.7439441 15.0027849,61.6294296 14.9320934,61.5588932 C14.8613066,61.4882617 14.7467311,61.4882617 14.6759443,61.5588932" id="Fill-20" fill="#555555"></path>
                <path d="M13.3951984,62.8368291 L12.8400655,63.3906489 C12.769374,63.4611853 12.769374,63.5756046 12.8400655,63.6462361 C12.8754589,63.6815519 12.9218233,63.6991622 12.9681878,63.6991622 C13.0144568,63.6991622 13.0608212,63.6815519 13.0962147,63.6462361 L13.6513476,63.0925115 C13.7220391,63.0218799 13.7220391,62.9074607 13.6513476,62.8369243 C13.5805608,62.7662928 13.4658899,62.7662928 13.3951984,62.8368291" id="Fill-21" fill="#555555"></path>
                <path d="M14.3770559,62.8369243 C14.3063644,62.7662928 14.1916935,62.7662928 14.1209067,62.8369243 C14.0502153,62.9074607 14.0502153,63.0218799 14.1209067,63.0924163 L14.6759443,63.6462361 C14.7113377,63.6815519 14.7577021,63.6991622 14.8039711,63.6991622 C14.8503356,63.6991622 14.8967,63.6815519 14.9320934,63.6462361 C15.0027849,63.5756998 15.0027849,63.4611853 14.9320934,63.3906489 L14.3770559,62.8369243" id="Fill-22" fill="#555555"></path>
                <path d="M13.0962147,61.558798 C13.0254278,61.4883569 12.9108523,61.4882617 12.8400655,61.5588932 C12.769374,61.6295248 12.769374,61.7439441 12.8400655,61.8144804 L13.3951984,62.3683002 C13.4304965,62.4035208 13.4768609,62.4212263 13.5232253,62.4212263 C13.5695898,62.4212263 13.6159542,62.4035208 13.6513476,62.368205 C13.7220391,62.2976687 13.7220391,62.1832494 13.6513476,62.1126179 L13.0962147,61.558798" id="Fill-23" fill="#555555"></path>
                <path d="M16.9866291,41.1344793 C16.6580713,41.1344793 16.3907603,40.8677548 16.3907603,40.5398227 C16.3907603,40.2119857 16.6580713,39.9452612 16.9866291,39.9452612 C17.3151869,39.9452612 17.5824979,40.2119857 17.5824979,40.5398227 C17.5824979,40.8677548 17.3151869,41.1344793 16.9866291,41.1344793 Z M16.9866291,39.6939576 C16.5191688,39.6939576 16.1389042,40.073388 16.1389042,40.5398227 C16.1389042,41.0062574 16.5191688,41.3856877 16.9866291,41.3856877 C17.4540894,41.3856877 17.8343541,41.0062574 17.8343541,40.5398227 C17.8343541,40.073388 17.4540894,39.6939576 16.9866291,39.6939576 L16.9866291,39.6939576 Z" id="Fill-24" fill="#555555"></path>
                <path d="M30.076376,28.5271302 C29.7478182,28.5271302 29.4804119,28.2604057 29.4804119,27.9324735 C29.4804119,27.6046366 29.7478182,27.3379121 30.076376,27.3379121 C30.4049338,27.3379121 30.6722448,27.6046366 30.6722448,27.9324735 C30.6722448,28.2604057 30.4049338,28.5271302 30.076376,28.5271302 Z M30.076376,27.0866085 C29.6089157,27.0866085 29.2286511,27.4660389 29.2286511,27.9324735 C29.2286511,28.3989082 29.6089157,28.7783386 30.076376,28.7783386 C30.5438363,28.7783386 30.9240056,28.3989082 30.9240056,27.9324735 C30.9240056,27.4660389 30.5438363,27.0866085 30.076376,27.0866085 L30.076376,27.0866085 Z" id="Fill-25" fill="#555555"></path>
                <path d="M3.7095165,50.9272282 L4.62354448,50.0152056 C4.70539773,49.9335319 4.70539773,49.8011216 4.62354448,49.7194479 C4.54169122,49.6377743 4.40898974,49.6377743 4.32713649,49.7194479 L3.41310851,50.6313754 L2.49917593,49.7194479 C2.41732268,49.6377743 2.28462119,49.6377743 2.20276794,49.7194479 C2.12091469,49.8011216 2.12091469,49.9335319 2.20276794,50.0152056 L3.11670052,50.9272282 L2.20276794,51.8391557 C2.12091469,51.9208293 2.12091469,52.0532397 2.20276794,52.1349133 C2.28462119,52.216587 2.41732268,52.216587 2.49917593,52.1349133 L3.41310851,51.2229859 L4.32713649,52.1350085 C4.40898974,52.2166822 4.54178662,52.2166822 4.62363988,52.1350085 C4.70549313,52.0533349 4.70549313,51.9209245 4.62363988,51.8392508 L3.7095165,50.9272282 Z" id="Fill-26" fill="#555555"></path>
                <path d="M40.2309493,31.8192073 L38.9953277,31.8192073 L38.9953277,30.5862014 C38.9953277,30.4757801 38.9055562,30.3863008 38.7948922,30.3863008 C38.6842281,30.3863008 38.594552,30.4757801 38.594552,30.5862014 L38.594552,31.8192073 L37.3587397,31.8192073 C37.2480756,31.8192073 37.1583041,31.9086866 37.1583041,32.0191078 C37.1583041,32.1295291 37.2480756,32.2191036 37.3587397,32.2191036 L38.594552,32.2191036 L38.594552,33.4521095 C38.594552,33.5625307 38.6842281,33.6521052 38.7948922,33.6521052 C38.9055562,33.6521052 38.9953277,33.5625307 38.9953277,33.4521095 L38.9953277,32.2191036 L40.2309493,32.2191036 C40.3416133,32.2191036 40.4313848,32.1295291 40.4313848,32.0191078 C40.4313848,31.9086866 40.3416133,31.8192073 40.2309493,31.8192073" id="Fill-27" fill="#555555"></path>
                <path d="M38.5691756,71.3110909 C37.3761979,71.3110909 36.4055976,70.3427153 36.4055976,69.1523549 C36.4055976,67.9618994 37.3761979,66.9934286 38.5691756,66.9934286 C39.762058,66.9934286 40.7326582,67.9618994 40.7326582,69.1523549 C40.7326582,70.3427153 39.762058,71.3110909 38.5691756,71.3110909 Z M38.5691756,65.6607581 C36.6397094,65.6607581 35.0699968,67.2270267 35.0699968,69.1523549 C35.0699968,71.0774928 36.6397094,72.6437614 38.5691756,72.6437614 C40.4985464,72.6437614 42.068259,71.0774928 42.068259,69.1523549 C42.068259,67.2270267 40.4985464,65.6607581 38.5691756,65.6607581 L38.5691756,65.6607581 Z" id="Fill-28" fill="#555555"></path>
                <path d="M58.6733074,71.3110909 C57.4802342,71.3110909 56.509634,70.3427153 56.509634,69.1523549 C56.509634,67.9618994 57.4802342,66.9934286 58.6733074,66.9934286 C59.8662851,66.9934286 60.8368854,67.9618994 60.8368854,69.1523549 C60.8368854,70.3427153 59.8662851,71.3110909 58.6733074,71.3110909 Z M58.6733074,65.6607581 C56.7437458,65.6607581 55.1740332,67.2270267 55.1740332,69.1523549 C55.1740332,71.0774928 56.7437458,72.6437614 58.6733074,72.6437614 C60.6026782,72.6437614 62.1724862,71.0774928 62.1724862,69.1523549 C62.1724862,67.2270267 60.6026782,65.6607581 58.6733074,65.6607581 L58.6733074,65.6607581 Z" id="Fill-29" fill="#555555"></path>
                <path d="M60.587128,58.47081 L56.0207087,58.47081 C55.6569483,58.47081 55.3854397,58.1366904 55.4607103,57.7815337 L56.8164406,51.380241 C56.872345,51.1161819 57.1059798,50.9272282 57.376439,50.9272282 L62.5493164,50.9272282 C62.9340649,50.9272282 63.2092941,51.2982818 63.096722,51.6654325 L61.1344381,58.0667252 C61.0608847,58.3067963 60.838698,58.47081 60.587128,58.47081 Z M36.0379258,58.0667252 L34.075642,51.6654325 C33.9631653,51.2982818 34.2382991,50.9272282 34.6230475,50.9272282 L39.795925,50.9272282 C40.0664796,50.9272282 40.3000189,51.1161819 40.3559234,51.380241 L41.7116536,57.7815337 C41.7869243,58.1366904 41.5154157,58.47081 41.1516553,58.47081 L36.5853314,58.47081 C36.333666,58.47081 36.1115747,58.3067963 36.0379258,58.0667252 Z M38.6035196,43.105975 L39.8317954,48.9052814 C39.9069707,49.2604381 39.6354621,49.5945577 39.2717017,49.5945577 L33.8643308,49.5945577 C33.6126655,49.5945577 33.3905741,49.430544 33.3170207,49.1904729 L31.5392406,43.3911665 C31.4266685,43.024111 31.7018977,42.6529622 32.0866461,42.6529622 L38.0435213,42.6529622 C38.3140759,42.6529622 38.5476152,42.8419159 38.6035196,43.105975 Z M63.3080331,49.5945577 L57.9006623,49.5945577 C57.5369019,49.5945577 57.2653933,49.2604381 57.3405685,48.9052814 L58.5688443,43.105975 C58.6247487,42.8419159 58.8582881,42.6529622 59.1288427,42.6529622 L65.0857179,42.6529622 C65.4704663,42.6529622 65.7456955,43.024111 65.6331234,43.3911665 L63.8554387,49.1904729 C63.7817898,49.430544 63.5596985,49.5945577 63.3080331,49.5945577 Z M47.4904169,49.5945577 L41.8068629,49.5945577 C41.5364037,49.5945577 41.302769,49.405604 41.2468645,49.1414497 L40.0186841,43.3421433 C39.9434135,42.9870818 40.2149221,42.6529622 40.5786825,42.6529622 L47.4904169,42.6529622 C47.8065727,42.6529622 48.0628172,42.9086446 48.0628172,43.2241068 L48.0628172,49.0234131 C48.0628172,49.3387801 47.8065727,49.5945577 47.4904169,49.5945577 Z M49.9708185,42.6529622 L56.5936815,42.6529622 C56.9574419,42.6529622 57.2289505,42.9870818 57.1536798,43.3421433 L55.9254994,49.1414497 C55.869595,49.405604 55.6359603,49.5945577 55.3655011,49.5945577 L49.9708185,49.5945577 C49.6546627,49.5945577 49.3984181,49.3387801 49.3984181,49.0234131 L49.3984181,43.2241068 C49.3984181,42.9086446 49.6546627,42.6529622 49.9708185,42.6529622 Z M43.1267227,58.017702 L41.7710879,51.6164093 C41.6958172,51.2613478 41.9673258,50.9272282 42.3310862,50.9272282 L47.4904169,50.9272282 C47.8065727,50.9272282 48.0628172,51.1829106 48.0628172,51.4983728 L48.0628172,57.8996654 C48.0628172,58.2151276 47.8065727,58.47081 47.4904169,58.47081 L43.6868165,58.47081 C43.4162619,58.47081 43.1827225,58.2818563 43.1267227,58.017702 Z M49.3984181,57.8996654 L49.3984181,51.4983728 C49.3984181,51.1829106 49.6546627,50.9272282 49.9708185,50.9272282 L54.8412777,50.9272282 C55.2050382,50.9272282 55.4765468,51.2613478 55.4013715,51.6164093 L54.0456412,58.017702 C53.9896414,58.2818563 53.7561021,58.47081 53.4855475,58.47081 L49.9708185,58.47081 C49.6546627,58.47081 49.3984181,58.2151276 49.3984181,57.8996654 Z M67.4006003,42.1814824 C67.4856018,41.9040014 67.3826651,41.5937747 67.1212689,41.4241448 C67.0105095,41.3522758 66.8781896,41.3202917 66.7460605,41.3202917 L58.1287638,41.3202917 L58.12428,41.3202917 L39.0486563,41.3202917 L39.0429323,41.3202917 L31.2864304,41.3202917 C31.0440188,41.3202917 30.8279377,41.1679865 30.7469431,40.9400046 L29.2749201,36.7977789 C28.9333879,35.8367331 28.0172611,35.1911494 26.9954311,35.1911494 L22.6033077,35.1911494 C22.2376393,35.1911494 21.9188123,35.4723429 21.9078412,35.8370186 C21.896584,36.2143548 22.1997654,36.5238199 22.5753555,36.5238199 L26.9954311,36.5238199 C27.4529698,36.5238199 27.8630946,36.8129143 28.0160209,37.2431765 L29.776152,42.1958562 L35.024491,59.3168654 C35.0274484,59.3272412 35.0305966,59.3375218 35.0339356,59.3477072 L36.4630285,64.0096744 C36.5488885,64.2898208 36.8080905,64.481059 37.1016365,64.481059 L60.3315512,64.481059 C60.6972197,64.481059 61.0161421,64.1999607 61.0270177,63.8351898 C61.0383703,63.4578536 60.7351889,63.1483885 60.3595989,63.1483885 L38.0192897,63.1483885 C37.7676243,63.1483885 37.5454376,62.98447 37.4718841,62.7443037 L36.7966425,60.5416848 C36.6840704,60.1746293 36.9592996,59.8034805 37.344048,59.8034805 L42.6795826,59.8034805 C42.6799642,59.8034805 42.6802504,59.8035757 42.680632,59.8035757 C42.6812044,59.8035757 42.6818722,59.8034805 42.6824446,59.8034805 L54.4899193,59.8034805 C54.4904917,59.8034805 54.4911595,59.8035757 54.4917319,59.8035757 C54.4921135,59.8035757 54.4923997,59.8034805 54.4927813,59.8034805 L61.5046858,59.8034805 C61.7982318,59.8034805 62.0574337,59.6121471 62.1432938,59.3320959 L64.8624817,50.4613647 C64.8630541,50.4596512 64.8636265,50.4578426 64.8641035,50.4561292 L67.4006003,42.1814824 L67.4006003,42.1814824 Z" id="Fill-30" fill="#555555"></path>
                <path d="M38.5690802,68.3907337 C38.1476028,68.3907337 37.8058797,68.731707 37.8058797,69.1522597 C37.8058797,69.5729077 38.1476028,69.9137858 38.5690802,69.9137858 C38.9906531,69.9137858 39.3322807,69.5729077 39.3322807,69.1522597 C39.3322807,68.731707 38.9906531,68.3907337 38.5690802,68.3907337" id="Fill-31" fill="#555555"></path>
                <path d="M58.673212,68.3907337 C58.2517345,68.3907337 57.9100115,68.731707 57.9100115,69.1522597 C57.9100115,69.5729077 58.2517345,69.9137858 58.673212,69.9137858 C59.0947848,69.9137858 59.4364125,69.5729077 59.4364125,69.1522597 C59.4364125,68.731707 59.0947848,68.3907337 58.673212,68.3907337" id="Fill-32" fill="#555555"></path>
                <path d="M23.9547449,46.1237124 L23.0523558,46.1237124 L23.9547449,46.1237124 Z M33.2601623,46.1237124 L26.8924944,46.1237124 L33.2601623,46.1237124 Z M18.6562256,54.6989715 L16.4143242,54.6989715 L18.6562256,54.6989715 Z M27.6754427,54.6989715 L21.7567276,54.6989715 L27.6754427,54.6989715 Z M19.9362082,65.6607581 L18.8152575,65.6607581 L19.9362082,65.6607581 Z M25.7715437,65.6607581 L22.5597099,65.6607581 L25.7715437,65.6607581 Z M33.5307168,65.6607581 L28.1406134,65.6607581 L33.5307168,65.6607581 Z" id="Stroke-33" stroke="#555555" stroke-width="1.5" stroke-linecap="round" stroke-linejoin="round"></path>
                <path d="M34.4506596,17.2640649 C34.1260132,17.2553074 33.8127194,17.3452626 33.5461716,17.5200328 C33.0162243,16.1438601 31.6785246,15.1641569 30.1150131,15.1641569 C28.6988946,15.1641569 27.4681384,15.968138 26.8548114,17.1422207 C26.3227652,16.3929743 25.4476605,15.9025515 24.4594113,15.9025515 C23.3555372,15.9025515 22.3924736,16.5140569 21.8915278,17.4151326 C21.5327282,17.0527414 21.0391283,16.8231413 20.4947755,16.8127655 C19.9563376,16.8031513 19.4441347,17.0074306 19.053376,17.3899071 C18.6588014,17.7761912 18.4325124,18.3124959 18.4325124,18.861461 C18.4325124,19.5927163 17.8361667,20.1877537 17.1033034,20.1877537 L16.6705687,20.1877537 C16.4071692,20.1877537 16.1935684,20.4008858 16.1935684,20.6637075 C16.1935684,20.9265292 16.4071692,21.1396613 16.6705687,21.1396613 L17.1033034,21.1396613 C18.3622026,21.1396613 19.386513,20.1176933 19.386513,18.861461 C19.386513,18.56656 19.5085297,18.2778464 19.7214627,18.0693787 C19.927813,17.8673839 20.1973182,17.7583905 20.4765541,17.7644827 C21.0544877,17.7755248 21.5246192,18.2538584 21.5246192,18.8309047 C21.5246192,19.0938216 21.7382199,19.3068585 22.0016195,19.3068585 C22.2650191,19.3068585 22.4786198,19.0938216 22.4786198,18.8309047 C22.4786198,17.741161 23.367176,16.8544591 24.4594113,16.8544591 C25.5516466,16.8544591 26.4402981,17.741161 26.4402981,18.8309047 C26.4402981,19.0938216 26.6538035,19.3068585 26.9172984,19.3068585 C27.180698,19.3068585 27.3942987,19.0938216 27.3942987,18.8309047 C27.3942987,17.3339349 28.6148471,16.1160644 30.1150131,16.1160644 C31.6153698,16.1160644 32.8359182,17.3339349 32.8359182,18.8309047 C32.8359182,19.0938216 33.0494235,19.3068585 33.3129185,19.3068585 C33.5763181,19.3068585 33.7899188,19.0938216 33.7899188,18.8309047 C33.7899188,18.663369 33.8562218,18.5065898 33.9767121,18.3896956 C34.097107,18.2728013 34.2571883,18.2128312 34.4246154,18.2155917 C34.7549858,18.2246348 35.0238232,18.5108734 35.0238232,18.8536553 L35.0238232,19.5721551 C35.0238232,19.9116054 34.7470676,20.1877537 34.406871,20.1877537 L34.2092021,20.1877537 C33.9458025,20.1877537 33.7322018,20.4008858 33.7322018,20.6637075 C33.7322018,20.9265292 33.9458025,21.1396613 34.2092021,21.1396613 L34.406871,21.1396613 C35.2731989,21.1396613 35.9778238,20.4364872 35.9778238,19.5721551 L35.9778238,18.8536553 C35.9778238,18.000175 35.2928513,17.2871011 34.4506596,17.2640649" id="Fill-34" fill="#EDEDED"></path>
                <path d="M12.4087618,20.1875634 C12.2837877,20.1875634 12.1607217,20.2380145 12.0719042,20.3274938 C11.9831821,20.4150693 11.9317615,20.5378653 11.9317615,20.6635171 C11.9317615,20.7891689 11.9831821,20.911965 12.0719042,21.0004924 C12.1607217,21.0890198 12.2837877,21.1394709 12.4087618,21.1394709 C12.5345945,21.1394709 12.6576606,21.0890198 12.7463826,21.0004924 C12.8351047,20.911965 12.8857621,20.7891689 12.8857621,20.6635171 C12.8857621,20.5378653 12.8351047,20.4150693 12.7463826,20.3274938 C12.6576606,20.2380145 12.5345945,20.1875634 12.4087618,20.1875634" id="Fill-35" fill="#ECF0F4"></path>
                <path d="M14.9091974,20.1877537 L14.0629035,20.1877537 C13.7995039,20.1877537 13.5859032,20.4008858 13.5859032,20.6637075 C13.5859032,20.9265292 13.7995039,21.1396613 14.0629035,21.1396613 L14.9091974,21.1396613 C15.172597,21.1396613 15.3861977,20.9265292 15.3861977,20.6637075 C15.3861977,20.4008858 15.172597,20.1877537 14.9091974,20.1877537" id="Fill-36" fill="#ECF0F4"></path>
                <path d="M32.3239061,20.1877537 L31.3196296,20.1877537 C31.0561347,20.1877537 30.8426293,20.4008858 30.8426293,20.6637075 C30.8426293,20.9265292 31.0561347,21.1396613 31.3196296,21.1396613 L32.3239061,21.1396613 C32.5873056,21.1396613 32.8009064,20.9265292 32.8009064,20.6637075 C32.8009064,20.4008858 32.5873056,20.1877537 32.3239061,20.1877537" id="Fill-37" fill="#ECF0F4"></path>
                <path d="M75.7466746,20.6639931 C74.6905005,20.6492385 73.6941423,21.0504676 72.9425806,21.7906709 C72.6165986,22.1118445 72.3543439,22.4795664 72.1616357,22.879082 C71.6518178,22.200943 70.8468321,21.7531657 69.9423441,21.7359362 C69.1870619,21.7209912 68.4669822,22.0097048 67.917764,22.5473422 C67.3619633,23.0914525 67.0431363,23.8468864 67.0431363,24.6243092 C67.0431363,25.6156258 66.234907,26.422177 65.2412199,26.422177 L64.9180999,26.422177 C64.654605,26.422177 64.4410996,26.6352139 64.4410996,26.8981308 C64.4410996,27.1609525 64.654605,27.3740846 64.9180999,27.3740846 L65.2412199,27.3740846 C66.7608475,27.3740846 67.9971369,26.1405076 67.9971369,24.6197401 C67.9971369,24.1007601 68.2116916,23.5931078 68.5858507,23.2268138 C68.9507559,22.8696581 69.4247988,22.676992 69.9240273,22.6876533 C70.9456666,22.7071674 71.7768873,23.5529373 71.7768873,24.5730014 C71.7768873,24.8359183 71.990488,25.0489552 72.2538876,25.0489552 C72.5173826,25.0489552 72.7308879,24.8359183 72.7308879,24.5730014 C72.7308879,23.7757789 73.0441817,23.0282459 73.6127661,22.4681435 C74.181255,21.9082314 74.9298593,21.6047633 75.734368,21.6159006 C77.3468198,21.6367474 78.6587615,22.9862667 78.6587615,24.6243092 C78.6587615,25.6156258 77.8504368,26.422177 76.8569405,26.422177 L76.6658542,26.422177 C76.4024546,26.422177 76.1888539,26.6352139 76.1888539,26.8981308 C76.1888539,27.1609525 76.4024546,27.3740846 76.6658542,27.3740846 L76.8569405,27.3740846 C78.3764727,27.3740846 79.6127621,26.1405076 79.6127621,24.6243092 C79.6127621,22.4682387 77.878389,20.6916936 75.7466746,20.6639931" id="Fill-38" fill="#EDEDED"></path>
                <path d="M75.1777087,26.422177 L74.386079,26.422177 C74.122584,26.422177 73.9090787,26.6352139 73.9090787,26.8981308 C73.9090787,27.1609525 74.122584,27.3740846 74.386079,27.3740846 L75.1777087,27.3740846 C75.4411082,27.3740846 75.654709,27.1609525 75.654709,26.8981308 C75.654709,26.6352139 75.4411082,26.422177 75.1777087,26.422177" id="Fill-39" fill="#ECF0F4"></path>
                <path d="M63.114371,26.422177 L61.1653478,26.422177 C60.9018528,26.422177 60.6883475,26.6352139 60.6883475,26.8981308 C60.6883475,27.1609525 60.9018528,27.3740846 61.1653478,27.3740846 L63.114371,27.3740846 C63.3777706,27.3740846 63.5913713,27.1609525 63.5913713,26.8981308 C63.5913713,26.6352139 63.3777706,26.422177 63.114371,26.422177" id="Fill-40" fill="#ECF0F4"></path>
                <path d="M59.2848218,26.4218915 C59.1597523,26.4218915 59.0366862,26.4732945 58.9480596,26.5618219 C58.8593375,26.6503493 58.8078215,26.7731453 58.8078215,26.8978452 C58.8078215,27.023497 58.8593375,27.1462931 58.9480596,27.2348205 C59.0366862,27.3233479 59.1597523,27.373799 59.2848218,27.373799 C59.4107498,27.373799 59.5337205,27.3233479 59.622538,27.2348205 C59.71126,27.1462931 59.7618221,27.023497 59.7618221,26.8978452 C59.7618221,26.7731453 59.71126,26.6503493 59.622538,26.5618219 C59.5337205,26.4732945 59.4107498,26.4218915 59.2848218,26.4218915" id="Fill-41" fill="#ECF0F4"></path>
                <path d="M72.3961291,8.49509257 C71.9597692,8.4834793 71.5468778,8.62064918 71.2102109,8.884042 C70.6051838,7.13253211 68.9379723,5.8703027 66.9797907,5.8703027 C65.1830259,5.8703027 63.6313439,6.93301229 62.9200411,8.46110947 C62.2922133,7.46055945 61.1781314,6.79327226 59.9102646,6.79327226 C58.5159927,6.79327226 57.3076555,7.59991872 56.7275277,8.76962271 C56.2941253,8.26853858 55.6591425,7.94450925 54.952228,7.93099216 C54.3087546,7.92042599 53.7016286,8.16287684 53.2363625,8.6183646 C52.765754,9.07899266 52.4958673,9.71848415 52.4958673,10.3729206 C52.4958673,11.352719 51.6969872,12.1497512 50.7150343,12.1497512 L50.1742114,12.1497512 C49.9107164,12.1497512 49.6972111,12.3628833 49.6972111,12.625705 C49.6972111,12.8885267 49.9107164,13.1016588 50.1742114,13.1016588 L50.7150343,13.1016588 C52.2230231,13.1016588 53.4498679,11.8775057 53.4498679,10.3729206 C53.4498679,9.97245309 53.6154824,9.58064794 53.9044492,9.2979314 C54.1854023,9.02292531 54.548495,8.8747133 54.9340066,8.88270933 C55.7208663,8.89774947 56.3610007,9.5491398 56.3610007,10.3348443 C56.3610007,10.597666 56.574506,10.8107981 56.838001,10.8107981 C57.1014006,10.8107981 57.3150013,10.597666 57.3150013,10.3348443 C57.3150013,8.90688778 58.4792637,7.74517981 59.9102646,7.74517981 C61.3412655,7.74517981 62.5055278,8.90688778 62.5055278,10.3348443 C62.5055278,10.597666 62.7190331,10.8107981 62.9825281,10.8107981 C63.2459277,10.8107981 63.4595284,10.597666 63.4595284,10.3348443 C63.4595284,8.397998 65.0386856,6.82221025 66.9797907,6.82221025 C68.9208957,6.82221025 70.5001483,8.397998 70.5001483,10.3348443 C70.5001483,10.597666 70.7136536,10.8107981 70.9771486,10.8107981 C71.2405482,10.8107981 71.4541489,10.597666 71.4541489,10.3348443 C71.4541489,10.0928694 71.5498352,9.86669616 71.7237495,9.69792295 C71.897473,9.52914974 72.1290089,9.43948005 72.3698941,9.44661936 C72.8469898,9.45966049 73.2350772,9.87088455 73.2350772,10.3632111 L73.2350772,11.2612407 C73.2350772,11.7511875 72.8356372,12.1497512 72.3445177,12.1497512 L72.0975269,12.1497512 C71.8340319,12.1497512 71.6205266,12.3628833 71.6205266,12.625705 C71.6205266,12.8885267 71.8340319,13.1016588 72.0975269,13.1016588 L72.3445177,13.1016588 C73.3616731,13.1016588 74.1890778,12.2760694 74.1890778,11.2612407 L74.1890778,10.3632111 C74.1890778,9.36018615 73.3848553,8.52212675 72.3961291,8.49509257" id="Fill-42" fill="#EDEDED"></path>
                <path d="M45.3041337,12.1497512 L44.8581384,12.1497512 C44.5947388,12.1497512 44.3811381,12.3628833 44.3811381,12.625705 C44.3811381,12.8885267 44.5947388,13.1016588 44.8581384,13.1016588 L45.3041337,13.1016588 C45.5676287,13.1016588 45.781134,12.8885267 45.781134,12.625705 C45.781134,12.3628833 45.5676287,12.1497512 45.3041337,12.1497512" id="Fill-43" fill="#ECF0F4"></path>
                <path d="M48.54993,12.1497512 L46.9146775,12.1497512 C46.6511826,12.1497512 46.4376772,12.3628833 46.4376772,12.625705 C46.4376772,12.8885267 46.6511826,13.1016588 46.9146775,13.1016588 L48.54993,13.1016588 C48.8133295,13.1016588 49.0269303,12.8885267 49.0269303,12.625705 C49.0269303,12.3628833 48.8133295,12.1497512 48.54993,12.1497512" id="Fill-44" fill="#ECF0F4"></path>
                <path d="M70.7744235,12.1497512 L69.5189587,12.1497512 C69.2555591,12.1497512 69.0419584,12.3628833 69.0419584,12.625705 C69.0419584,12.8885267 69.2555591,13.1016588 69.5189587,13.1016588 L70.7744235,13.1016588 C71.037823,13.1016588 71.2514238,12.8885267 71.2514238,12.625705 C71.2514238,12.3628833 71.037823,12.1497512 70.7744235,12.1497512" id="Fill-45" fill="#ECF0F4"></path>
                <path d="M39.2421276,4.39103837 L39.0465575,4.39103837 C38.783158,4.39103837 38.5695572,4.60417047 38.5695572,4.86699215 C38.5695572,5.12981382 38.783158,5.34294592 39.0465575,5.34294592 L39.2421276,5.34294592 C39.5055272,5.34294592 39.719128,5.12981382 39.719128,4.86699215 C39.719128,4.60417047 39.5055272,4.39103837 39.2421276,4.39103837" id="Fill-46" fill="#ECF0F4"></path>
                <path d="M41.730829,2.02155011 C41.360486,1.65906371 40.8748043,1.46430343 40.3643186,1.47448884 C39.8799725,1.48372234 39.4393196,1.67743553 39.1056102,1.98509205 C38.5881602,0.954080981 37.5196796,0.244243523 36.2874924,0.244243523 C35.0899354,0.244243523 34.0463542,0.914672009 33.5136402,1.8990396 C33.4862604,1.86905452 33.4581174,1.83954538 33.428925,1.81089296 C33.0019143,1.39195845 32.4361919,1.16759384 31.8373657,1.17663697 C30.6361836,1.19662702 29.6590008,2.20127025 29.6590008,3.41618985 L29.6590008,4.33573254 C29.6590008,4.36619359 29.6341014,4.39103837 29.6034779,4.39103837 L29.0323178,4.39103837 C28.7688228,4.39103837 28.5553175,4.60417047 28.5553175,4.86699215 C28.5553175,5.12981382 28.7688228,5.34294592 29.0323178,5.34294592 L29.6034779,5.34294592 C30.1601373,5.34294592 30.6130014,4.89107541 30.6130014,4.33573254 L30.6130014,3.41618985 C30.6130014,2.71748971 31.1693745,2.13977702 31.8532976,2.12844932 C32.1940666,2.12245231 32.5169004,2.25095982 32.7599797,2.48960305 C33.0032499,2.72834146 33.1371916,3.04723049 33.1371916,3.38763263 C33.1371916,3.6504543 33.3507923,3.8635864 33.6141919,3.8635864 C33.8776868,3.8635864 34.0911922,3.6504543 34.0911922,3.38763263 C34.0911922,2.17928119 35.076484,1.19615107 36.2874924,1.19615107 C37.4985961,1.19615107 38.4837926,2.17928119 38.4837926,3.38763263 C38.4837926,3.6504543 38.6973933,3.8635864 38.9607929,3.8635864 C39.2242878,3.8635864 39.4377932,3.6504543 39.4377932,3.38763263 C39.4377932,2.86741515 39.8616556,2.43620103 40.38254,2.426206 C40.6355409,2.42296952 40.8767123,2.51901699 41.0627424,2.7011169 C41.2549735,2.88921383 41.365256,3.14984612 41.365256,3.41599947 L41.365256,4.04882761 C41.365256,4.23749569 41.2113757,4.39103837 41.0222928,4.39103837 C40.7588932,4.39103837 40.5452925,4.60417047 40.5452925,4.86699215 C40.5452925,5.12981382 40.7588932,5.34294592 41.0222928,5.34294592 C41.7374116,5.34294592 42.3192566,4.76237751 42.3192566,4.04882761 L42.3192566,3.41599947 C42.3192566,2.89587719 42.1047019,2.38755856 41.730829,2.02155011" id="Fill-47" fill="#EDEDED"></path>
                <path d="M27.3893379,4.39103837 L26.6412107,4.39103837 C26.3777157,4.39103837 26.1642103,4.60417047 26.1642103,4.86699215 C26.1642103,5.12981382 26.3777157,5.34294592 26.6412107,5.34294592 L27.3893379,5.34294592 C27.6528329,5.34294592 27.8663382,5.12981382 27.8663382,4.86699215 C27.8663382,4.60417047 27.6528329,4.39103837 27.3893379,4.39103837" id="Fill-48" fill="#ECF0F4"></path>
                <path d="M24.7280578,4.39094318 C24.6030838,4.39094318 24.4800177,4.44139428 24.3912956,4.52992168 C24.3025736,4.61844909 24.2510575,4.74124516 24.2510575,4.86689696 C24.2510575,4.99254875 24.3025736,5.11534483 24.3912956,5.20387223 C24.4790637,5.29239963 24.6021298,5.34285073 24.7280578,5.34285073 C24.8539859,5.34285073 24.977052,5.29239963 25.0657741,5.20387223 C25.1544961,5.11534483 25.2050581,4.99254875 25.2050581,4.86689696 C25.2050581,4.74219707 25.1544961,4.61940099 25.0657741,4.52992168 C24.977052,4.44139428 24.8539859,4.39094318 24.7280578,4.39094318" id="Fill-49" fill="#ECF0F4"></path>
            </g>
        </g>
    </g>
</svg>